<svg xmlns="http://www.w3.org/2000/svg" xmlns:xlink="http://www.w3.org/1999/xlink" viewBox="0 0 55 55"><defs><style>.cls-1{isolation:isolate;}.cls-2{fill:#f6abbb;}.cls-3{fill:#91c5ea;}.cls-4{fill:#e5bc8f;}.cls-5{fill:#f0c494;}.cls-6,.cls-7{opacity:0.2;mix-blend-mode:multiply;}.cls-6{fill:url(#Fade_to_Black);}.cls-7{fill:url(#Fade_to_Black-2);}.cls-8{fill:#f3f2f3;}.cls-9{fill:#303356;}.cls-10{fill:#fff;}.cls-11{fill:#8c6239;}.cls-12{fill:#332426;}.cls-13{fill:#f9f7f0;}.cls-14{fill:#342922;}.cls-15{fill:#42210b;}.cls-16{fill:#c69c6d;}</style><linearGradient id="Fade_to_Black" x1="27.14" y1="39.37" x2="27.14" y2="45.59" gradientUnits="userSpaceOnUse"><stop offset="0" stop-color="#231f20"/><stop offset="0.06" stop-color="#231f20" stop-opacity="0.86"/><stop offset="0.33" stop-color="#231f20" stop-opacity="0.38"/><stop offset="0.63" stop-color="#231f20" stop-opacity="0.09"/><stop offset="1" stop-color="#231f20" stop-opacity="0"/></linearGradient><linearGradient id="Fade_to_Black-2" x1="27.5" y1="55.02" x2="27.5" y2="46.41" xlink:href="#Fade_to_Black"/></defs><title>face5</title><g class="cls-1"><g id="Calque_4" data-name="Calque 4"><rect class="cls-2" width="55" height="55"/><rect class="cls-3" y="0.03" width="55" height="55"/></g><g id="avatars"><path class="cls-4" d="M43.25,23.86c-.12,2.22-1.24,4.83-2.44,4.77s-2-2.78-1.93-5,1.15-3.11,2.35-3S43.37,21.64,43.25,23.86Z"/><path class="cls-4" d="M11.75,23.86c.12,2.22,1.24,4.83,2.44,4.77s2-2.78,1.93-5-1.15-3.11-2.35-3S11.63,21.64,11.75,23.86Z"/><path class="cls-5" d="M27.24,47.93a7.36,7.36,0,0,0,6.31-3.3,2.18,2.18,0,0,1-1.43-2.27v-3H22.36v3a2.18,2.18,0,0,1-1.43,2.27A7.36,7.36,0,0,0,27.24,47.93Z"/><path class="cls-6" d="M33.66,44.64a2.18,2.18,0,0,1-1.48-2.27v-3H22.09v3a2.18,2.18,0,0,1-1.48,2.27C21.52,45.9,32.76,45.9,33.66,44.64Z"/><path class="cls-5" d="M27.5,41.22c-3.83,0-9.45-2.91-11.19-6s-2.67-9.59-2.67-15.13c0-8.63,6.2-13.86,13.86-13.86s13.86,5.23,13.86,13.86c0,5.54-.92,12-2.67,15.13s-7.36,6-11.19,6Z"/><path class="cls-7" d="M42.5,48.67c-1.53-3-28.46-3-30,0A29.49,29.49,0,0,0,10.28,55H44.72A29.49,29.49,0,0,0,42.5,48.67Z"/><g id="Layer_1" data-name="Layer 1"><path class="cls-8" d="M20.82,41.43l-1.3.92s-.61,10.77,7.66,12,7.71-12,7.71-12l-1.35-.92-6.36,5.13Z"/><path class="cls-9" d="M41.37,42.87c-1.52-.18-4.74-.37-6.48-.53,0,0-2.52,8-7.41,9.94-4.89-1.93-8-9.94-8-9.94-1.74.16-5,.35-6.48.53A5.48,5.48,0,0,0,8.2,48.31L7.67,55H46.74l-.53-6.69A5.48,5.48,0,0,0,41.37,42.87Z"/><polygon class="cls-10" points="22.34 39.99 27.18 46.55 23 49.91 20.82 41.42 22.34 39.99"/><polygon class="cls-10" points="32.02 39.99 27.18 46.55 31.36 49.91 33.54 41.42 32.02 39.99"/></g><path class="cls-10" d="M36.54,25.46c0,.93-1.38,1.68-3.08,1.68s-3.08-.75-3.08-1.68,1.38-1.68,3.08-1.68S36.54,24.53,36.54,25.46Z"/><path class="cls-11" d="M35.14,25.46a1.68,1.68,0,1,1-1.68-1.68A1.68,1.68,0,0,1,35.14,25.46Z"/><path class="cls-12" d="M34.35,25.46a.89.89,0,1,1-.89-.89A.89.89,0,0,1,34.35,25.46Z"/><path class="cls-13" d="M34.42,25.18a.36.36,0,1,1-.36-.36A.36.36,0,0,1,34.42,25.18Z"/><path class="cls-10" d="M24.54,25.46c0,.93-1.38,1.68-3.08,1.68s-3.08-.75-3.08-1.68,1.38-1.68,3.08-1.68S24.54,24.53,24.54,25.46Z"/><path class="cls-11" d="M23.14,25.46a1.68,1.68,0,1,1-1.68-1.68A1.68,1.68,0,0,1,23.14,25.46Z"/><path class="cls-12" d="M22.35,25.46a.89.89,0,1,1-.89-.89A.89.89,0,0,1,22.35,25.46Z"/><path class="cls-13" d="M22.42,25.18a.36.36,0,1,1-.36-.36A.36.36,0,0,1,22.42,25.18Z"/><g id="_1" data-name="1"><path class="cls-14" d="M15.92,30.8s-.85-6.1.36-7.83a7.85,7.85,0,0,0,.85-6.3c-.54-2.15-.6-5.61,1.94-5.89s7.38,3,11.19,2.15,5.41-2.77,7.17-2.22,2.48,3,1.63,7.2-.54,6.44,0,8a18.08,18.08,0,0,1,.3,5.06s5.08-3.33,4.17-9.08-.85-6.37-.24-9.63-.91-5.75-4.66-5.68a35.72,35.72,0,0,0-6.08-4.16c-3-1.52-11.61-.76-14.21,2.29s-4,3-5,6.37.42,7.76-.42,10.32S13.26,30.45,15.92,30.8Z"/></g><g id="artwork"><path class="cls-15" d="M37.92,21.19a6,6,0,0,0-2.88.35,49.52,49.52,0,0,0-5,2.19c-.3.19-1-.26-1-.26,1.33-.62,6.51-3.91,7.24-3.56C37.95,20.73,37.92,21.19,37.92,21.19Z"/><path class="cls-15" d="M17.8,22.1c.5-.65,6.61,0,8.07,0,0,0-.46.74-.81.7A49.52,49.52,0,0,0,19.6,23a6,6,0,0,0-2.73,1S16.63,23.6,17.8,22.1Z"/><path class="cls-16" d="M27.57,37.79c-.49,0-.65.11-.9.11a3.7,3.7,0,0,1-.52-.07,3.45,3.45,0,0,0,.49.8c.25.14.56-.06.93-.06s.68.2.93.06a6.15,6.15,0,0,0,.67-1,2.46,2.46,0,0,1-.56.14Z"/><path class="cls-16" d="M27.57,37.07a13.46,13.46,0,0,0,3.05-.45,8.12,8.12,0,0,1-2.29-.27.88.88,0,0,0-.77.31.88.88,0,0,0-.77-.31c-.41.11-2,.42-2.36.47A13.07,13.07,0,0,0,27.57,37.07Z"/></g></g></g></svg>