<svg xmlns="http://www.w3.org/2000/svg" xmlns:xlink="http://www.w3.org/1999/xlink" viewBox="0 0 55 55"><defs><style>.cls-1{isolation:isolate;}.cls-2{fill:#f6abbb;}.cls-3{fill:#91c5ea;}.cls-4{fill:#ccc;}.cls-5{fill:#e5bc8f;}.cls-6{fill:#f0c494;}.cls-7,.cls-8{opacity:0.2;mix-blend-mode:multiply;}.cls-7{fill:url(#Fade_to_Black);}.cls-8{fill:url(#Fade_to_Black-2);}.cls-9{fill:#f3f2f3;}.cls-10{fill:#fff;}.cls-11{fill:#8c6239;}.cls-12{fill:#332426;}.cls-13{fill:#f9f7f0;}.cls-14{fill:#42210b;}.cls-15{fill:#c69c6d;}</style><linearGradient id="Fade_to_Black" x1="27.14" y1="39.37" x2="27.14" y2="45.59" gradientUnits="userSpaceOnUse"><stop offset="0" stop-color="#231f20"/><stop offset="0.06" stop-color="#231f20" stop-opacity="0.86"/><stop offset="0.33" stop-color="#231f20" stop-opacity="0.38"/><stop offset="0.63" stop-color="#231f20" stop-opacity="0.09"/><stop offset="1" stop-color="#231f20" stop-opacity="0"/></linearGradient><linearGradient id="Fade_to_Black-2" x1="27.5" y1="55.02" x2="27.5" y2="46.41" xlink:href="#Fade_to_Black"/></defs><title>face6</title><g class="cls-1"><g id="Calque_4" data-name="Calque 4"><rect class="cls-2" width="55" height="55"/><rect class="cls-3" y="0.03" width="55" height="55"/><rect class="cls-4" y="0.03" width="55" height="55"/></g><g id="avatars_-_copie_7" data-name="avatars - copie 7"><path class="cls-5" d="M43.25,23.86c-.12,2.22-1.24,4.83-2.44,4.77s-2-2.78-1.93-5,1.15-3.11,2.35-3S43.37,21.64,43.25,23.86Z"/><path class="cls-5" d="M11.75,23.86c.12,2.22,1.24,4.83,2.44,4.77s2-2.78,1.93-5-1.15-3.11-2.35-3S11.63,21.64,11.75,23.86Z"/><path class="cls-6" d="M27.24,47.93a7.36,7.36,0,0,0,6.31-3.3,2.18,2.18,0,0,1-1.43-2.27v-3H22.36v3a2.18,2.18,0,0,1-1.43,2.27A7.36,7.36,0,0,0,27.24,47.93Z"/><path class="cls-7" d="M33.66,44.64a2.18,2.18,0,0,1-1.48-2.27v-3H22.09v3a2.18,2.18,0,0,1-1.48,2.27C21.52,45.9,32.76,45.9,33.66,44.64Z"/><path class="cls-6" d="M27.5,41.22c-3.83,0-9.45-2.91-11.19-6s-2.67-9.59-2.67-15.13c0-8.63,6.2-13.86,13.86-13.86s13.86,5.23,13.86,13.86c0,5.54-.92,12-2.67,15.13s-7.36,6-11.19,6Z"/><path class="cls-8" d="M42.5,48.67c-1.53-3-28.46-3-30,0A29.49,29.49,0,0,0,10.28,55H44.72A29.49,29.49,0,0,0,42.5,48.67Z"/><g id="Layer_1_-_copie_5" data-name="Layer 1 - copie 5"><path class="cls-9" d="M20.82,41.43l-1.3.92s-.61,10.77,7.66,12,7.71-12,7.71-12l-1.35-.92-6.36,5.13Z"/><path d="M41.37,42.87c-1.52-.18-4.74-.37-6.48-.53,0,0-2.52,8-7.41,9.94-4.89-1.93-8-9.94-8-9.94-1.74.16-5,.35-6.48.53A5.48,5.48,0,0,0,8.2,48.31L7.67,55H46.74l-.53-6.69A5.48,5.48,0,0,0,41.37,42.87Z"/><polygon class="cls-10" points="22.34 39.99 27.18 46.55 23 49.91 20.82 41.42 22.34 39.99"/><polygon class="cls-10" points="32.02 39.99 27.18 46.55 31.36 49.91 33.54 41.42 32.02 39.99"/></g><path class="cls-10" d="M36.54,25.46c0,.93-1.38,1.68-3.08,1.68s-3.08-.75-3.08-1.68,1.38-1.68,3.08-1.68S36.54,24.53,36.54,25.46Z"/><path class="cls-11" d="M35.14,25.46a1.68,1.68,0,1,1-1.68-1.68A1.68,1.68,0,0,1,35.14,25.46Z"/><path class="cls-12" d="M34.35,25.46a.89.89,0,1,1-.89-.89A.89.89,0,0,1,34.35,25.46Z"/><path class="cls-13" d="M34.42,25.18a.36.36,0,1,1-.36-.36A.36.36,0,0,1,34.42,25.18Z"/><path class="cls-10" d="M24.54,25.46c0,.93-1.38,1.68-3.08,1.68s-3.08-.75-3.08-1.68,1.38-1.68,3.08-1.68S24.54,24.53,24.54,25.46Z"/><path class="cls-11" d="M23.14,25.46a1.68,1.68,0,1,1-1.68-1.68A1.68,1.68,0,0,1,23.14,25.46Z"/><path class="cls-12" d="M22.35,25.46a.89.89,0,1,1-.89-.89A.89.89,0,0,1,22.35,25.46Z"/><path class="cls-13" d="M22.42,25.18a.36.36,0,1,1-.36-.36A.36.36,0,0,1,22.42,25.18Z"/><g id="_1_-_copie_6" data-name="1 - copie 6"><path class="cls-14" d="M36.12,6.07s-1.7-4-9.87-4.07A16.69,16.69,0,0,0,9.77,18.27a8.6,8.6,0,0,1,1.78-1.76s0,5.29-1.07,6.91A1.5,1.5,0,0,0,12,22.64s.36,1-.85,2.69a1.26,1.26,0,0,0,1.63-.38s.21,5.37-.36,6.91c0,0,2.34-3.07,2.06-8.59s6.75-6.52,6.75-6.52-.78,4.3-.14,5.68c0,0,1.42-4,4.26-4.76,0,0-1.21,2.76,0,4.76A4.75,4.75,0,0,1,29.08,19,5.53,5.53,0,0,0,30,22.72s.78-2.92,2.27-2.92a6,6,0,0,0,2.7-.69,6.25,6.25,0,0,0,4.26,2.15c2.7.15.57,10.13,2.34,12.74,0,0,.28-6.22,1.42-8.29,0,0,.43,2.69,1.28,3.15,0,0-.78-5.29-.07-7.75,0,0,.14,3.15,1.42,3.91a10.34,10.34,0,0,1,.21-5.53C46.77,16.12,43.5,5.07,36.12,6.07Z"/></g><g id="_1_-_copie_6-2" data-name="1 - copie 6"><path class="cls-14" d="M27.11,34.16v1.22s-2.34.17-2.83,1,.17,3.91,1,4,1.43-1,2.34-1,.91,1,1.68,1,1.82-3.08,1.61-3.67S28,35.49,28,35.49V34.13a14.28,14.28,0,0,1,3.36,1.29c1.33.8,2.69-.63,2.69-.63a4.76,4.76,0,0,1-.21,3.15,17,17,0,0,1-2.62,4.3c-.94,1.29-6.36,1.36-7.41,0a27.5,27.5,0,0,1-2.73-4.61,10.29,10.29,0,0,1-.21-3.39s1.5,1.92,2.62,1.15A7.76,7.76,0,0,1,27.11,34.16Z"/></g><g id="artwork_-_copie_3" data-name="artwork - copie 3"><path class="cls-14" d="M38.42,22.82a6,6,0,0,0-2.88-.32,49.52,49.52,0,0,0-5.38,1c-.33.12-.95-.49-.95-.49,1.43-.3,7.23-2.32,7.87-1.81C38.55,22.38,38.42,22.82,38.42,22.82Z"/><path class="cls-14" d="M17.31,22.61c.45-.68,6.59-.51,8-.66,0,0-.4.77-.75.75a49.52,49.52,0,0,0-5.42.69,6,6,0,0,0-2.65,1.18S16.27,24.19,17.31,22.61Z"/><path class="cls-15" d="M27.57,37.79c-.49,0-.65.11-.9.11a3.7,3.7,0,0,1-.52-.07,3.45,3.45,0,0,0,.49.8c.25.14.56-.06.93-.06s.68.2.93.06a6.15,6.15,0,0,0,.67-1,2.46,2.46,0,0,1-.56.14Z"/><path class="cls-15" d="M27.57,37.07a13.46,13.46,0,0,0,3.05-.45,8.12,8.12,0,0,1-2.29-.27.88.88,0,0,0-.77.31.88.88,0,0,0-.77-.31c-.41.11-2,.42-2.36.47A13.07,13.07,0,0,0,27.57,37.07Z"/></g></g></g></svg>