<svg xmlns="http://www.w3.org/2000/svg" xmlns:xlink="http://www.w3.org/1999/xlink" viewBox="0 0 55 55"><defs><style>.cls-1{isolation:isolate;}.cls-2{fill:#f6abbb;}.cls-3{fill:#91c5ea;}.cls-4{fill:#ccc;}.cls-5{fill:#e5bc8f;}.cls-6{fill:#f0c494;}.cls-7,.cls-9{opacity:0.2;mix-blend-mode:multiply;}.cls-7{fill:url(#Fade_to_Black);}.cls-8{fill:#0071bb;}.cls-9{fill:url(#Fade_to_Black-2);}.cls-10{fill:#fff;}.cls-11{fill:#00a99d;}.cls-12{fill:#332426;}.cls-13{fill:#f9f7f0;}.cls-14{fill:#c69c6d;}.cls-15{fill:#342922;}.cls-16{fill:#3a292c;}</style><linearGradient id="Fade_to_Black" x1="27.5" y1="39.03" x2="27.5" y2="46.42" gradientUnits="userSpaceOnUse"><stop offset="0" stop-color="#231f20"/><stop offset="0.06" stop-color="#231f20" stop-opacity="0.86"/><stop offset="0.33" stop-color="#231f20" stop-opacity="0.38"/><stop offset="0.63" stop-color="#231f20" stop-opacity="0.09"/><stop offset="1" stop-color="#231f20" stop-opacity="0"/></linearGradient><linearGradient id="Fade_to_Black-2" x1="27.5" y1="55.02" x2="27.5" y2="46.41" xlink:href="#Fade_to_Black"/></defs><title>face8</title><g class="cls-1"><g id="Calque_4" data-name="Calque 4"><rect class="cls-2" width="55" height="55"/><rect class="cls-3" y="0.03" width="55" height="55"/><rect class="cls-4" y="0.03" width="55" height="55"/></g><g id="avatars_-_copie_8" data-name="avatars - copie 8"><path class="cls-5" d="M42.25,23.86c-.12,2.22-1.24,4.83-2.44,4.77s-2-2.78-1.93-5,1.15-3.11,2.35-3S42.37,21.64,42.25,23.86Z"/><path class="cls-5" d="M12.75,23.86c.12,2.22,1.24,4.83,2.44,4.77s2-2.78,1.93-5-1.15-3.11-2.35-3S12.63,21.64,12.75,23.86Z"/><path class="cls-6" d="M27.5,49.08a8.68,8.68,0,0,0,7.39-3.74,2.47,2.47,0,0,1-1.67-2.57c0-.82-.12-2.44-.12-3.59l-11.32.19v3.4a2.47,2.47,0,0,1-1.67,2.57A8.68,8.68,0,0,0,27.5,49.08Z"/><path class="cls-7" d="M34.89,45.34a2.47,2.47,0,0,1-1.67-2.57C33.22,42,33,40.19,33,39l-11.25.34v3.4a2.47,2.47,0,0,1-1.67,2.57C21.13,46.78,33.87,46.78,34.89,45.34Z"/><path class="cls-8" d="M42.5,48.67c-1.53-3-6.73-3.72-8.07-4h0a8.21,8.21,0,0,1-6.89,3.3,8.21,8.21,0,0,1-6.89-3.3h0c-1.34.3-6.54,1-8.07,4A29.49,29.49,0,0,0,10.28,55H44.72A29.49,29.49,0,0,0,42.5,48.67Z"/><path class="cls-6" d="M27.5,41.22a10.75,10.75,0,0,1-9.13-5.4c-1.74-3.1-4.73-10.2-4.73-15.74,0-8.63,6.2-13.86,13.86-13.86s13.86,5.23,13.86,13.86c0,5.54-3.07,12.07-4.82,15.18s-5.21,6-9,6Z"/><path class="cls-9" d="M42.5,48.67c-1.53-3-28.46-3-30,0A29.49,29.49,0,0,0,10.28,55H44.72A29.49,29.49,0,0,0,42.5,48.67Z"/><path class="cls-10" d="M36.54,26.46c0,.93-1.38,1.68-3.08,1.68s-3.08-.75-3.08-1.68,1.38-1.68,3.08-1.68S36.54,25.53,36.54,26.46Z"/><path class="cls-11" d="M35.14,26.46a1.68,1.68,0,1,1-1.68-1.68A1.68,1.68,0,0,1,35.14,26.46Z"/><path class="cls-12" d="M34.35,26.46a.89.89,0,1,1-.89-.89A.89.89,0,0,1,34.35,26.46Z"/><path class="cls-13" d="M34.42,26.18a.36.36,0,1,1-.36-.36A.36.36,0,0,1,34.42,26.18Z"/><path class="cls-10" d="M24.54,26.46c0,.93-1.38,1.68-3.08,1.68s-3.08-.75-3.08-1.68,1.38-1.68,3.08-1.68S24.54,25.53,24.54,26.46Z"/><path class="cls-11" d="M23.14,26.46a1.68,1.68,0,1,1-1.68-1.68A1.68,1.68,0,0,1,23.14,26.46Z"/><path class="cls-12" d="M22.35,26.46a.89.89,0,1,1-.89-.89A.89.89,0,0,1,22.35,26.46Z"/><path class="cls-13" d="M22.42,26.18a.36.36,0,1,1-.36-.36A.36.36,0,0,1,22.42,26.18Z"/><g id="artwork_-_copie_4" data-name="artwork - copie 4"><path d="M38.05,23.24A6,6,0,0,0,35.17,23a49.52,49.52,0,0,0-5.35,1.14c-.33.13-1-.46-1-.46,1.42-.34,7.16-2.53,7.81-2C38.18,22.8,38.05,23.24,38.05,23.24Z"/><path d="M18.33,22c.6-.56,6.52,1,8,1.24,0,0-.57.65-.91.56a49.53,49.53,0,0,0-5.44-.6,6,6,0,0,0-2.85.53S16.95,23.32,18.33,22Z"/><path class="cls-14" d="M27.57,37.79c-.49,0-.65.11-.9.11a3.7,3.7,0,0,1-.52-.07,3.45,3.45,0,0,0,.49.8c.25.14.56-.06.93-.06s.68.2.93.06a6.15,6.15,0,0,0,.67-1,2.46,2.46,0,0,1-.56.14Z"/><path class="cls-14" d="M27.57,37.07a13.46,13.46,0,0,0,3.05-.45,8.12,8.12,0,0,1-2.29-.27.88.88,0,0,0-.77.31.88.88,0,0,0-.77-.31c-.41.11-2,.42-2.36.47A13.07,13.07,0,0,0,27.57,37.07Z"/></g><g id="_1" data-name="1"><path class="cls-15" d="M29.54,5.44S17.08,6.57,15.78,9.52s-3.38,6.19-4.59,7.17,0,1.66,0,1.66a3,3,0,0,1,1.39-1.81s-.78,2.79.35,4.08.09,3.25.09,3.25l1-1.13a6.84,6.84,0,0,1,.87,3.17c.09,2,.35,4.53,1.73,4.91,0,0-1.3-6.42.61-8.91a8.67,8.67,0,0,1,4.24-3.1,2.27,2.27,0,0,1-1.31,2.11s2.61-1.59,3.21-2.79,2.42-.76,1.73,0-1.65,2-2.68,2.42a12.87,12.87,0,0,0,4.07-2.19c1.47-1.36,3.55-1.81,3.9-.91s-2.08.91-2.68,1.51a4.81,4.81,0,0,1,2.72.3,3.61,3.61,0,0,0,4.38-1.13c1.13-1.51,4.33-.23,3.64,3.1s0,9.21,1.3,10.12a6.52,6.52,0,0,1,1-5.66c2-2.79,3.72-1.74,2.94-4.91s-3.64-8-2.6-9.59A3.66,3.66,0,0,0,42,13a4.07,4.07,0,0,1-.35-2.79C41.92,8.24,38.46,5,29.54,5.44Z"/></g><path class="cls-16" d="M35.43,23.06H31.76a2.12,2.12,0,0,0-1.85,1H25.44a2.38,2.38,0,0,0-1.85-1H19.92a2.37,2.37,0,0,0-2.38,2.38v1.46a2.88,2.88,0,0,0,2.88,2.88h1.12a4.38,4.38,0,0,0,4.37-4.37,1,1,0,0,0,0-.3h3.51c0,.07,0,.2,0,.3a4.38,4.38,0,0,0,4.37,4.37h1.12a2.88,2.88,0,0,0,2.88-2.88V25.44A2.37,2.37,0,0,0,35.43,23.06Z"/></g></g></svg>