<svg xmlns="http://www.w3.org/2000/svg" xmlns:xlink="http://www.w3.org/1999/xlink" viewBox="0 0 55 55"><defs><style>.cls-1{isolation:isolate;}.cls-2{fill:#f6abbb;}.cls-3{fill:#fdd5a9;}.cls-4{fill:#ffdab3;}.cls-5{opacity:0.2;mix-blend-mode:multiply;fill:url(#Fade_to_Black);}.cls-6{fill:#3d2b2e;}.cls-7{fill:#f9f7f0;}.cls-8{fill:#22b573;}.cls-9{fill:#332426;}.cls-10{fill:#7c131e;}.cls-11{fill:#fff;}.cls-12{fill:#be2433;}.cls-13{fill:#397978;}.cls-14{fill:#7ed2f0;}.cls-15{fill:#231f20;}</style><linearGradient id="Fade_to_Black" x1="27.5" y1="38.94" x2="27.5" y2="45.42" gradientUnits="userSpaceOnUse"><stop offset="0" stop-color="#231f20"/><stop offset="0.06" stop-color="#231f20" stop-opacity="0.86"/><stop offset="0.33" stop-color="#231f20" stop-opacity="0.38"/><stop offset="0.63" stop-color="#231f20" stop-opacity="0.09"/><stop offset="1" stop-color="#231f20" stop-opacity="0"/></linearGradient></defs><title>face1</title><g class="cls-1"><g id="Calque_4" data-name="Calque 4"><rect class="cls-2" width="55" height="55"/></g><g id="avatar1_-_copie" data-name="avatar1 - copie"><g id="avatars_-_copie_2" data-name="avatars - copie 2"><path class="cls-3" d="M42.36,23.67c-.12,2.2-1.23,4.78-2.42,4.72s-2-2.75-1.91-5,1.13-3.08,2.33-3S42.48,21.47,42.36,23.67Z"/><path class="cls-3" d="M12.64,23.67c.12,2.2,1.23,4.78,2.42,4.72s2-2.75,1.91-5-1.13-3.08-2.33-3S12.52,21.47,12.64,23.67Z"/><path class="cls-4" d="M31.47,38.94c0,1.06.11,4.46,3.21,5.49-1,1.32,3.88,5.15-7.17,5.32s-6.18-4-7.17-5.32c3.1-1,3.21-4.42,3.21-5.49Z"/><path class="cls-5" d="M31.47,38.94c0,1.06.11,4.46,3.21,5.49-1,1.32-13.36,1.32-14.35,0,3.1-1,3.21-4.42,3.21-5.49Z"/><path class="cls-4" d="M27.5,40.86c-2.79,0-8.23-2.88-10-6s-3-9.51-3-15c0-8.55,5.39-13.73,13-13.73s13,5.18,13,13.73c0,5.49-1.29,11.92-3,15s-7.17,6-10,6Z"/><path class="cls-6" d="M25.7,24.7c.38.05.65-.6.33-1s-6.43-2.23-7.63-1.58-2.72,3.38-2.72,3.38A17.75,17.75,0,0,1,18.89,23C19.93,22.69,25,24.65,25.7,24.7Z"/><path class="cls-6" d="M29.3,24.7c-.38.05-.65-.6-.33-1s6.43-2.23,7.63-1.58,2.72,3.38,2.72,3.38A17.75,17.75,0,0,0,36.11,23C35.07,22.69,30,24.65,29.3,24.7Z"/><path class="cls-7" d="M37.6,25.94c-1.59-.77-4.85-2.7-7.88,1.2h0c1.15,1.06,5.29,2.92,7.88-1.2Z"/><path class="cls-7" d="M33.62,26.18a.7.7,0,1,0,.77-.62A.77.77,0,0,0,33.62,26.18Z"/><path class="cls-8" d="M35.39,26.56a1.73,1.73,0,1,1-1.73-1.73A1.73,1.73,0,0,1,35.39,26.56Z"/><path class="cls-9" d="M34.58,26.56a.91.91,0,1,1-.91-.91A.91.91,0,0,1,34.58,26.56Z"/><path class="cls-7" d="M34.66,26.27a.37.37,0,1,1-.37-.37A.37.37,0,0,1,34.66,26.27Z"/><path class="cls-9" d="M38,26.09c-1.75-1.69-6.64-2.49-8.49,1.48,0,0,3.15-4.29,7.72-.62Z"/><path class="cls-7" d="M17.4,25.94c2.59,4.12,6.73,2.26,7.88,1.2h0c-3-3.9-6.29-2-7.88-1.2Z"/><path class="cls-7" d="M20.62,25.55a.7.7,0,1,0,.77.62A.77.77,0,0,0,20.62,25.55Z"/><path class="cls-8" d="M21.34,24.83a1.73,1.73,0,1,1-1.73,1.73A1.73,1.73,0,0,1,21.34,24.83Z"/><path class="cls-9" d="M21.34,25.65a.91.91,0,1,1-.91.91A.91.91,0,0,1,21.34,25.65Z"/><path class="cls-7" d="M20.71,25.9a.37.37,0,1,1-.37.37A.37.37,0,0,1,20.71,25.9Z"/><path class="cls-9" d="M17,26.09c1.75-1.69,6.64-2.49,8.49,1.48,0,0-3.15-4.29-7.72-.62Z"/></g><path class="cls-10" d="M27.5,35.11l-3.22.18a3.52,3.52,0,0,1,.82.42,7,7,0,0,0,2.39,1.08,7,7,0,0,0,2.39-1.08,3.52,3.52,0,0,1,.82-.42Z"/><path class="cls-11" d="M27.5,35.28l-2.13.06s.3.53,2.13.59,2.13-.59,2.13-.59Z"/><path class="cls-12" d="M29.32,34.93a1.94,1.94,0,0,0-1.82-.14,1.94,1.94,0,0,0-1.82.14,5.24,5.24,0,0,1-1.39.35,9.48,9.48,0,0,0,1.9.21,5.37,5.37,0,0,1,1.31.1,5.37,5.37,0,0,1,1.31-.1,9.48,9.48,0,0,0,1.9-.21A5.24,5.24,0,0,1,29.32,34.93Z"/><path class="cls-12" d="M28.92,36.06a3.73,3.73,0,0,1-2.84,0,5.48,5.48,0,0,0-1.8-.78,4.4,4.4,0,0,1,.94.87A2.28,2.28,0,0,0,27.5,37.4a2.28,2.28,0,0,0,2.28-1.24,4.4,4.4,0,0,1,.94-.87A5.48,5.48,0,0,0,28.92,36.06Z"/><path class="cls-13" d="M42.54,55l-.45-5.74a4.7,4.7,0,0,0-4.15-4.67c-1.31-.15-2.35-.32-3.85-.45V55Z"/><path class="cls-13" d="M20.91,44.15c-1.49.13-2.54.3-3.85.45a4.7,4.7,0,0,0-4.15,4.67L12.46,55h8.45Z"/><path class="cls-14" d="M20.91,46s5.54,2.67,13.19,0v9H20.91Z"/><g id="_1_-_copie" data-name="1 - copie"><path class="cls-15" d="M32.9,17c.27-.28-5.55,6.42-9.75,8.35,0,0,2.35-3.85,2.78-6.31,0,0-6.44,5.24-7.51,6.31s0,3.32,0,3.32A8.1,8.1,0,0,1,16.7,22.8s-2,5.72,3.54,10.65a7.84,7.84,0,0,1-3.9-3.1s1.33,5.78,2.94,8a6.33,6.33,0,0,1-1.4-1A14.94,14.94,0,0,0,17,39.76s-.19-1.07-.69-2.78a8.54,8.54,0,0,0-1.14-2.57s-.86.11-.86,1.93a7.36,7.36,0,0,1-1.07-3.53A4.11,4.11,0,0,0,12,29.92a2,2,0,0,0-.86,2S8.65,28.1,9.4,24C9.4,24,7,25.11,7,26.71a39.61,39.61,0,0,0,1-5.24s-1.29.11-3,.11c0,0,1.82.32,3.43-2.68S12.08,4.56,20.56,2.1,34,1.67,37.09,5.52a2.05,2.05,0,0,0,0-3.21S40,4.56,39,6.27c0,0,1-.54,2.36.75A3.87,3.87,0,0,0,39,7.24s6.55,2.89,6.87,16.16c0,0-1-4.17-2.15-4.6,0,0,2.58,7.81-.75,13.05a18.66,18.66,0,0,0,.21-4.28S42,31.74,41.27,32.7s-.21,4.28-.32,4.82l.11-.54a12.82,12.82,0,0,0-1.5-3.1,19.67,19.67,0,0,1-.43,4.71s-.54-1.71-.86-2.46,0,2.25-.43,3.1c0,0-.86-1.28-1.4-1.07a13.68,13.68,0,0,1-1.29,2.35s.11-1.61-.43-1.93a5.52,5.52,0,0,0,2.47-5.35,7.44,7.44,0,0,1-3.43,2.25s3.22-2.35,3.76-5.35,0-11.77,0-11.77-.54,5-2.47,6.1c0,0,.75-4.17.21-6.1,0,0-4,4.28-5.15,6.53C30.11,24.89,31.18,18.79,32.9,17Z"/></g></g></g></svg>