<svg xmlns="http://www.w3.org/2000/svg" xmlns:xlink="http://www.w3.org/1999/xlink" viewBox="0 0 55 55"><defs><style>.cls-1{isolation:isolate;}.cls-2{fill:#f6abbb;}.cls-3{fill:#91c5ea;}.cls-4{fill:#fdd5a9;}.cls-5{fill:#ffdab3;}.cls-6{opacity:0.2;mix-blend-mode:multiply;fill:url(#Fade_to_Black);}.cls-7{fill:#ff882a;}.cls-8{fill:#f9f7f0;}.cls-9{fill:#29abe2;}.cls-10{fill:#332426;}.cls-11{fill:#7c131e;}.cls-12{fill:#fff;}.cls-13{fill:#be2433;}.cls-14{fill:#ffa82a;}.cls-15{fill:#e84e1b;}</style><linearGradient id="Fade_to_Black" x1="27.5" y1="38.94" x2="27.5" y2="45.42" gradientUnits="userSpaceOnUse"><stop offset="0" stop-color="#231f20"/><stop offset="0.06" stop-color="#231f20" stop-opacity="0.86"/><stop offset="0.33" stop-color="#231f20" stop-opacity="0.38"/><stop offset="0.63" stop-color="#231f20" stop-opacity="0.09"/><stop offset="1" stop-color="#231f20" stop-opacity="0"/></linearGradient></defs><title>face3</title><g class="cls-1"><g id="Calque_4" data-name="Calque 4"><rect class="cls-2" width="55" height="55"/><rect class="cls-3" y="0.03" width="55" height="55"/></g><g id="avatar1_-_copie_3" data-name="avatar1 - copie 3"><g id="avatars_-_copie_5" data-name="avatars - copie 5"><path class="cls-4" d="M42.36,23.67c-.12,2.2-1.23,4.78-2.42,4.72s-2-2.75-1.91-5,1.13-3.08,2.33-3S42.48,21.47,42.36,23.67Z"/><path class="cls-4" d="M12.64,23.67c.12,2.2,1.23,4.78,2.42,4.72s2-2.75,1.91-5-1.13-3.08-2.33-3S12.52,21.47,12.64,23.67Z"/><path class="cls-5" d="M31.47,38.94c0,1.06.11,4.46,3.21,5.49-1,1.32,3.88,5.15-7.17,5.32s-6.18-4-7.17-5.32c3.1-1,3.21-4.42,3.21-5.49Z"/><path class="cls-6" d="M31.47,38.94c0,1.06.11,4.46,3.21,5.49-1,1.32-13.36,1.32-14.35,0,3.1-1,3.21-4.42,3.21-5.49Z"/><path class="cls-5" d="M27.5,40.86c-2.79,0-8.23-2.88-10-6s-3-9.51-3-15c0-8.55,5.39-13.73,13-13.73s13,5.18,13,13.73c0,5.49-1.29,11.92-3,15s-7.17,6-10,6Z"/><path class="cls-7" d="M24.43,24.35c.38,0,.49-.74.08-1s-6.78-.63-7.78.3-1.83,3.93-1.83,3.93a17.75,17.75,0,0,1,2.52-3.2C18.34,23.78,23.73,24.47,24.43,24.35Z"/><path class="cls-7" d="M30.09,24.22c-.38,0-.49-.74-.08-1s6.78-.59,7.78.34,1.81,3.94,1.81,3.94a17.75,17.75,0,0,0-2.5-3.22C36.18,23.68,30.79,24.34,30.09,24.22Z"/><path class="cls-8" d="M37.6,25.94c-1.59-.77-4.85-2.7-7.88,1.2h0c1.15,1.06,5.29,2.92,7.88-1.2Z"/><path class="cls-8" d="M33.62,26.18a.7.7,0,1,0,.77-.62A.77.77,0,0,0,33.62,26.18Z"/><path class="cls-9" d="M35.39,26.56a1.73,1.73,0,1,1-1.73-1.73A1.73,1.73,0,0,1,35.39,26.56Z"/><path class="cls-10" d="M34.58,26.56a.91.91,0,1,1-.91-.91A.91.91,0,0,1,34.58,26.56Z"/><path class="cls-8" d="M34.66,26.27a.37.37,0,1,1-.37-.37A.37.37,0,0,1,34.66,26.27Z"/><path class="cls-8" d="M17.4,25.94c2.59,4.12,6.73,2.26,7.88,1.2h0c-3-3.9-6.29-2-7.88-1.2Z"/><path class="cls-8" d="M20.62,25.55a.7.7,0,1,0,.77.62A.77.77,0,0,0,20.62,25.55Z"/><path class="cls-9" d="M21.34,24.83a1.73,1.73,0,1,1-1.73,1.73A1.73,1.73,0,0,1,21.34,24.83Z"/><path class="cls-10" d="M21.34,25.65a.91.91,0,1,1-.91.91A.91.91,0,0,1,21.34,25.65Z"/><path class="cls-8" d="M20.71,25.9a.37.37,0,1,1-.37.37A.37.37,0,0,1,20.71,25.9Z"/></g><path class="cls-11" d="M27.5,35.11l-3.22.18a3.52,3.52,0,0,1,.82.42,7,7,0,0,0,2.39,1.08,7,7,0,0,0,2.39-1.08,3.52,3.52,0,0,1,.82-.42Z"/><path class="cls-12" d="M27.5,35.28l-2.13.06s.3.53,2.13.59,2.13-.59,2.13-.59Z"/><path class="cls-13" d="M29.32,34.93a1.94,1.94,0,0,0-1.82-.14,1.94,1.94,0,0,0-1.82.14,5.24,5.24,0,0,1-1.39.35,9.48,9.48,0,0,0,1.9.21,5.37,5.37,0,0,1,1.31.1,5.37,5.37,0,0,1,1.31-.1,9.48,9.48,0,0,0,1.9-.21A5.24,5.24,0,0,1,29.32,34.93Z"/><path class="cls-13" d="M28.92,36.06a3.73,3.73,0,0,1-2.84,0,5.48,5.48,0,0,0-1.8-.78,4.4,4.4,0,0,1,.94.87A2.28,2.28,0,0,0,27.5,37.4a2.28,2.28,0,0,0,2.28-1.24,4.4,4.4,0,0,1,.94-.87A5.48,5.48,0,0,0,28.92,36.06Z"/><g id="_1" data-name="1"><path class="cls-14" d="M15.73,25.85s1.54,4.74,2,6.94,2.2,2.31,3.36,4.85-.17,5.07-3.69,4.19c0,0,1.76-.55.55-1.87s-2.42-2.64-3.3-2.86-1.76.66-.55,1.1c0,0-3.41.11-4.74-2.42s-.88-6.28-.88-6.28a8,8,0,0,0-1,4,8.47,8.47,0,0,1-.66-4.63c.33-2.75,4.08-5.4,4-9.91S12.31,8.25,19.58,5.27s11.68-1.87,15.64.55,5.95,2.95,6.94,8.79,2.75,8.59,4.08,11.79S48,34.66,44.37,36s-6.5,1.65-6.72,3.41c0,0-1.32-.22-.66-1.76A3.86,3.86,0,0,0,36.22,42a2.92,2.92,0,0,1-1.65-1.39,3.21,3.21,0,0,0,1,2.64,4.26,4.26,0,0,1-2.2-4c0-3,4.41-3.75,4.3-9.25l-1.1.22a25,25,0,0,0,2.09-3.08S36,30.25,33.35,30.25a9.69,9.69,0,0,0,4.74-9.58s-.66,6.32-2.2,6.65c0,0,2.42-2.31.44-6.39S31.2,13.22,28.7,14.1s-1.29,4.52-.63,5.18c0,0-2.86-1.32-1.65-5.18a3.46,3.46,0,0,0-3.3,1c-1.65,1.54-1.65,1.87-1.76,3.75a9.1,9.1,0,0,0,2.53,6.72s-2.86-.1-3.75-5.78c0,0-3.75.22,0,4.08,0,0-1.87,1.1-3-4.63"/></g><g id="Layer_1_-_copie_3" data-name="Layer 1 - copie 3"><path class="cls-5" d="M38.32,44.2c-1.36-.16-2.44-.33-4-.47a17.56,17.56,0,0,1-6.84,4.93,17.56,17.56,0,0,1-6.84-4.93c-1.55.14-2.63.31-4,.47A4.88,4.88,0,0,0,12.37,49l-.47,6H43.1l-.47-6A4.88,4.88,0,0,0,38.32,44.2Z"/></g><g id="Layer_1" data-name="Layer 1"><path class="cls-15" d="M32.49,42.93a10.74,10.74,0,0,1-5.16,1.75,10.74,10.74,0,0,1-5.16-1.75l-5.24,1.26L17.57,55h19.5l.66-10.78Z"/></g></g></g></svg>