<svg xmlns="http://www.w3.org/2000/svg" xmlns:xlink="http://www.w3.org/1999/xlink" viewBox="0 0 55 55"><defs><style>.cls-1{isolation:isolate;}.cls-2{fill:#f6abbb;}.cls-3{fill:#fdd5a9;}.cls-4{fill:#ffdab3;}.cls-5{opacity:0.2;mix-blend-mode:multiply;fill:url(#Fade_to_Black);}.cls-6{fill:#3d2b2e;}.cls-7{fill:#f9f7f0;}.cls-8{fill:#29abe2;}.cls-9{fill:#332426;}.cls-10{fill:#7c131e;}.cls-11{fill:#fff;}.cls-12{fill:#be2433;}.cls-13{fill:#20201e;}</style><linearGradient id="Fade_to_Black" x1="27.5" y1="38.94" x2="27.5" y2="45.42" gradientUnits="userSpaceOnUse"><stop offset="0" stop-color="#231f20"/><stop offset="0.06" stop-color="#231f20" stop-opacity="0.86"/><stop offset="0.33" stop-color="#231f20" stop-opacity="0.38"/><stop offset="0.63" stop-color="#231f20" stop-opacity="0.09"/><stop offset="1" stop-color="#231f20" stop-opacity="0"/></linearGradient></defs><title>face2</title><g class="cls-1"><g id="Calque_4" data-name="Calque 4"><rect class="cls-2" width="55" height="55"/></g><g id="avatar1_-_copie_2" data-name="avatar1 - copie 2"><g id="avatars_-_copie_9" data-name="avatars - copie 9"><path class="cls-3" d="M42.36,23.67c-.12,2.2-1.23,4.78-2.42,4.72s-2-2.75-1.91-5,1.13-3.08,2.33-3S42.48,21.47,42.36,23.67Z"/><path class="cls-3" d="M12.64,23.67c.12,2.2,1.23,4.78,2.42,4.72s2-2.75,1.91-5-1.13-3.08-2.33-3S12.52,21.47,12.64,23.67Z"/><path class="cls-4" d="M31.47,38.94c0,1.06.11,4.46,3.21,5.49-1,1.32,3.88,5.15-7.17,5.32s-6.18-4-7.17-5.32c3.1-1,3.21-4.42,3.21-5.49Z"/><path class="cls-5" d="M31.47,38.94c0,1.06.11,4.46,3.21,5.49-1,1.32-13.36,1.32-14.35,0,3.1-1,3.21-4.42,3.21-5.49Z"/><path class="cls-4" d="M27.5,40.86c-2.79,0-8.23-2.88-10-6s-3-9.51-3-15c0-8.55,5.39-13.73,13-13.73s13,5.18,13,13.73c0,5.49-1.29,11.92-3,15s-7.17,6-10,6Z"/><path class="cls-6" d="M25.7,24.7c.38.05.65-.6.33-1s-6.43-2.23-7.63-1.58-2.72,3.38-2.72,3.38A17.75,17.75,0,0,1,18.89,23C19.93,22.69,25,24.65,25.7,24.7Z"/><path class="cls-6" d="M29.3,24.7c-.38.05-.65-.6-.33-1s6.43-2.23,7.63-1.58,2.72,3.38,2.72,3.38A17.75,17.75,0,0,0,36.11,23C35.07,22.69,30,24.65,29.3,24.7Z"/><path class="cls-7" d="M37.6,25.94c-1.59-.77-4.85-2.7-7.88,1.2h0c1.15,1.06,5.29,2.92,7.88-1.2Z"/><path class="cls-7" d="M33.62,26.18a.7.7,0,1,0,.77-.62A.77.77,0,0,0,33.62,26.18Z"/><path class="cls-8" d="M35.39,26.56a1.73,1.73,0,1,1-1.73-1.73A1.73,1.73,0,0,1,35.39,26.56Z"/><path class="cls-9" d="M34.58,26.56a.91.91,0,1,1-.91-.91A.91.91,0,0,1,34.58,26.56Z"/><path class="cls-7" d="M34.66,26.27a.37.37,0,1,1-.37-.37A.37.37,0,0,1,34.66,26.27Z"/><path class="cls-9" d="M38,26.09c-1.75-1.69-6.64-2.49-8.49,1.48,0,0,3.15-4.29,7.72-.62Z"/><path class="cls-7" d="M17.4,25.94c2.59,4.12,6.73,2.26,7.88,1.2h0c-3-3.9-6.29-2-7.88-1.2Z"/><path class="cls-7" d="M20.62,25.55a.7.7,0,1,0,.77.62A.77.77,0,0,0,20.62,25.55Z"/><path class="cls-8" d="M21.34,24.83a1.73,1.73,0,1,1-1.73,1.73A1.73,1.73,0,0,1,21.34,24.83Z"/><path class="cls-9" d="M21.34,25.65a.91.91,0,1,1-.91.91A.91.91,0,0,1,21.34,25.65Z"/><path class="cls-7" d="M20.71,25.9a.37.37,0,1,1-.37.37A.37.37,0,0,1,20.71,25.9Z"/><path class="cls-9" d="M17,26.09c1.75-1.69,6.64-2.49,8.49,1.48,0,0-3.15-4.29-7.72-.62Z"/></g><path class="cls-10" d="M27.5,35.11l-3.22.18a3.52,3.52,0,0,1,.82.42,7,7,0,0,0,2.39,1.08,7,7,0,0,0,2.39-1.08,3.52,3.52,0,0,1,.82-.42Z"/><path class="cls-11" d="M27.5,35.28l-2.13.06s.3.53,2.13.59,2.13-.59,2.13-.59Z"/><path class="cls-12" d="M29.32,34.93a1.94,1.94,0,0,0-1.82-.14,1.94,1.94,0,0,0-1.82.14,5.24,5.24,0,0,1-1.39.35,9.48,9.48,0,0,0,1.9.21,5.37,5.37,0,0,1,1.31.1,5.37,5.37,0,0,1,1.31-.1,9.48,9.48,0,0,0,1.9-.21A5.24,5.24,0,0,1,29.32,34.93Z"/><path class="cls-12" d="M28.92,36.06a3.73,3.73,0,0,1-2.84,0,5.48,5.48,0,0,0-1.8-.78,4.4,4.4,0,0,1,.94.87A2.28,2.28,0,0,0,27.5,37.4a2.28,2.28,0,0,0,2.28-1.24,4.4,4.4,0,0,1,.94-.87A5.48,5.48,0,0,0,28.92,36.06Z"/><g id="_1" data-name="1"><path d="M22.79,16.61a14.39,14.39,0,0,1-7,8.73,13.8,13.8,0,0,0,6.58,11.25s-2.3.61-4.9-2.37A17.39,17.39,0,0,0,22,39l-2.69,1.34V38.73l-2,.15-.46-4-1.38,1.45s.38-.84-.77-1.76-4.59-5.21-4.13-10.26a2.41,2.41,0,0,1-2.22,1A29.22,29.22,0,0,0,11.46,16C12,11.32,14.14,5.74,19.65,3.44s12.78-1,15.16,1.3,2.91.69,6.12,5.59a26,26,0,0,1,3.9,11.87,27.8,27.8,0,0,0-1.61-5s2.53,10.18-1.38,15.31c0,0,1.61-3.83.46-10.41,0,0,.38,7.73-3.44,10.41,0,0-.77,3.6,1.53,5.13,0,0-1.84-.08-2.3-1.53a6.86,6.86,0,0,1-1.22,3.14s.31-1-.92-1.15-.84.84-.31,1.61l-2.07-.84s3.9-3.75,4.21-6.74c0,0-3.06,3.67-5.51,3.52,0,0,4.21-1.53,4.59-5.21,0,0-1.53,2.3-3.52,2.6,0,0,3.37-2.68,2.91-9.11a80.37,80.37,0,0,0-1.84-12s-1,8.88-5.82,11.1c0,0,2.68-2.6,2.45-5.28,0,0-4.59-9.56-3.06-.75C28,17,22.33,27.4,22.79,16.61Z"/></g><g id="Layer_1" data-name="Layer 1"><path class="cls-13" d="M38.32,44.2c-1.36-.16-2.44-.33-4-.47a17.56,17.56,0,0,1-6.84,4.93,17.56,17.56,0,0,1-6.84-4.93c-1.55.14-2.63.31-4,.47A4.88,4.88,0,0,0,12.37,49l-.47,6H43.1l-.47-6A4.88,4.88,0,0,0,38.32,44.2Z"/></g></g></g></svg>