<svg xmlns="http://www.w3.org/2000/svg" xmlns:xlink="http://www.w3.org/1999/xlink" viewBox="0 0 55 55"><defs><style>.cls-1{isolation:isolate;}.cls-2{fill:#f6abbb;}.cls-3{fill:#91c5ea;}.cls-4{fill:#ccc;}.cls-5{fill:#fdd5a9;}.cls-6{fill:#ffdab3;}.cls-7{opacity:0.2;mix-blend-mode:multiply;fill:url(#Fade_to_Black);}.cls-8{fill:#754c24;}.cls-9{fill:#f9f7f0;}.cls-10{fill:#009245;}.cls-11{fill:#332426;}.cls-12{fill:#3d2b2e;}.cls-13{fill:#858152;}.cls-14{fill:#7c131e;}.cls-15{fill:#fff;}.cls-16{fill:#be2433;}.cls-17{fill:#e20d18;}.cls-18{fill:#231f20;}</style><linearGradient id="Fade_to_Black" x1="27.5" y1="38.94" x2="27.5" y2="45.42" gradientUnits="userSpaceOnUse"><stop offset="0" stop-color="#231f20"/><stop offset="0.06" stop-color="#231f20" stop-opacity="0.86"/><stop offset="0.33" stop-color="#231f20" stop-opacity="0.38"/><stop offset="0.63" stop-color="#231f20" stop-opacity="0.09"/><stop offset="1" stop-color="#231f20" stop-opacity="0"/></linearGradient></defs><title>face4</title><g class="cls-1"><g id="Calque_4" data-name="Calque 4"><rect class="cls-2" width="55" height="55"/><rect class="cls-3" y="0.03" width="55" height="55"/><rect class="cls-4" y="0.03" width="55" height="55"/></g><g id="avatar1_-_copie_4" data-name="avatar1 - copie 4"><g id="avatars_-_copie_6" data-name="avatars - copie 6"><path class="cls-5" d="M42.36,23.67c-.12,2.2-1.23,4.78-2.42,4.72s-2-2.75-1.91-5,1.13-3.08,2.33-3S42.48,21.47,42.36,23.67Z"/><path class="cls-5" d="M12.64,23.67c.12,2.2,1.23,4.78,2.42,4.72s2-2.75,1.91-5-1.13-3.08-2.33-3S12.52,21.47,12.64,23.67Z"/><path class="cls-6" d="M31.47,38.94c0,1.06.11,4.46,3.21,5.49-1,1.32,3.88,5.15-7.17,5.32s-6.18-4-7.17-5.32c3.1-1,3.21-4.42,3.21-5.49Z"/><path class="cls-7" d="M31.47,38.94c0,1.06.11,4.46,3.21,5.49-1,1.32-13.36,1.32-14.35,0,3.1-1,3.21-4.42,3.21-5.49Z"/><path class="cls-6" d="M27.5,40.86c-2.79,0-8.23-2.88-10-6s-3-9.51-3-15c0-8.55,5.39-13.73,13-13.73s13,5.18,13,13.73c0,5.49-1.29,11.92-3,15s-7.17,6-10,6Z"/><path class="cls-8" d="M24.43,24.35c.38,0,.49-.74.08-1s-6.78-.63-7.78.3-1.83,3.93-1.83,3.93a17.75,17.75,0,0,1,2.52-3.2C18.34,23.78,23.73,24.47,24.43,24.35Z"/><path class="cls-8" d="M30.09,24.22c-.38,0-.49-.74-.08-1s6.78-.59,7.78.34,1.81,3.94,1.81,3.94a17.75,17.75,0,0,0-2.5-3.22C36.18,23.68,30.79,24.34,30.09,24.22Z"/><path class="cls-9" d="M37.6,25.94c-1.59-.77-4.85-2.7-7.88,1.2h0c1.15,1.06,5.29,2.92,7.88-1.2Z"/><path class="cls-9" d="M33.62,26.18a.7.7,0,1,0,.77-.62A.77.77,0,0,0,33.62,26.18Z"/><path class="cls-10" d="M35.39,26.56a1.73,1.73,0,1,1-1.73-1.73A1.73,1.73,0,0,1,35.39,26.56Z"/><path class="cls-11" d="M34.58,26.56a.91.91,0,1,1-.91-.91A.91.91,0,0,1,34.58,26.56Z"/><path class="cls-9" d="M34.66,26.27a.37.37,0,1,1-.37-.37A.37.37,0,0,1,34.66,26.27Z"/><path class="cls-9" d="M17.4,25.94c2.59,4.12,6.73,2.26,7.88,1.2h0c-3-3.9-6.29-2-7.88-1.2Z"/><path class="cls-9" d="M20.62,25.55a.7.7,0,1,0,.77.62A.77.77,0,0,0,20.62,25.55Z"/><path class="cls-10" d="M21.34,24.83a1.73,1.73,0,1,1-1.73,1.73A1.73,1.73,0,0,1,21.34,24.83Z"/><path class="cls-11" d="M21.34,25.65a.91.91,0,1,1-.91.91A.91.91,0,0,1,21.34,25.65Z"/><path class="cls-9" d="M20.71,25.9a.37.37,0,1,1-.37.37A.37.37,0,0,1,20.71,25.9Z"/><g id="avatars_-_copie" data-name="avatars - copie"><path class="cls-5" d="M42.36,23.67c-.12,2.2-1.23,4.78-2.42,4.72s-2-2.75-1.91-5,1.13-3.08,2.33-3S42.48,21.47,42.36,23.67Z"/><path class="cls-5" d="M12.64,23.67c.12,2.2,1.23,4.78,2.42,4.72s2-2.75,1.91-5-1.13-3.08-2.33-3S12.52,21.47,12.64,23.67Z"/><path class="cls-6" d="M31.47,38.94c0,1.06.11,4.46,3.21,5.49-1,1.32,3.88,5.15-7.17,5.32s-6.18-4-7.17-5.32c3.1-1,3.21-4.42,3.21-5.49Z"/><path class="cls-7" d="M31.47,38.94c0,1.06.11,4.46,3.21,5.49-1,1.32-13.36,1.32-14.35,0,3.1-1,3.21-4.42,3.21-5.49Z"/><path class="cls-6" d="M27.5,40.86c-2.79,0-8.23-2.88-10-6s-3-9.51-3-15c0-8.55,5.39-13.73,13-13.73s13,5.18,13,13.73c0,5.49-1.29,11.92-3,15s-7.17,6-10,6Z"/><path class="cls-12" d="M25.7,24.7c.38.05.65-.6.33-1s-6.43-2.23-7.63-1.58-2.72,3.38-2.72,3.38A17.75,17.75,0,0,1,18.89,23C19.93,22.69,25,24.65,25.7,24.7Z"/><path class="cls-12" d="M29.3,24.7c-.38.05-.65-.6-.33-1s6.43-2.23,7.63-1.58,2.72,3.38,2.72,3.38A17.75,17.75,0,0,0,36.11,23C35.07,22.69,30,24.65,29.3,24.7Z"/><path class="cls-12" d="M25.7,24.7c.38.05.65-.6.33-1s-6.43-2.23-7.63-1.58-2.72,3.38-2.72,3.38A17.75,17.75,0,0,1,18.89,23C19.93,22.69,25,24.65,25.7,24.7Z"/><path class="cls-12" d="M29.3,24.7c-.38.05-.65-.6-.33-1s6.43-2.23,7.63-1.58,2.72,3.38,2.72,3.38A17.75,17.75,0,0,0,36.11,23C35.07,22.69,30,24.65,29.3,24.7Z"/><path class="cls-9" d="M37.6,25.94c-1.59-.77-4.85-2.7-7.88,1.2h0c1.15,1.06,5.29,2.92,7.88-1.2Z"/><path class="cls-9" d="M33.62,26.18a.7.7,0,1,0,.77-.62A.77.77,0,0,0,33.62,26.18Z"/><path class="cls-13" d="M35.39,26.56a1.73,1.73,0,1,1-1.73-1.73A1.73,1.73,0,0,1,35.39,26.56Z"/><path class="cls-11" d="M34.58,26.56a.91.91,0,1,1-.91-.91A.91.91,0,0,1,34.58,26.56Z"/><path class="cls-9" d="M34.66,26.27a.37.37,0,1,1-.37-.37A.37.37,0,0,1,34.66,26.27Z"/><path class="cls-11" d="M38,26.09c-1.75-1.69-6.64-2.49-8.49,1.48,0,0,3.15-4.29,7.72-.62Z"/><path class="cls-9" d="M17.4,25.94c2.59,4.12,6.73,2.26,7.88,1.2h0c-3-3.9-6.29-2-7.88-1.2Z"/><path class="cls-9" d="M20.62,25.55a.7.7,0,1,0,.77.62A.77.77,0,0,0,20.62,25.55Z"/><path class="cls-13" d="M21.34,24.83a1.73,1.73,0,1,1-1.73,1.73A1.73,1.73,0,0,1,21.34,24.83Z"/><path class="cls-11" d="M21.34,25.65a.91.91,0,1,1-.91.91A.91.91,0,0,1,21.34,25.65Z"/><path class="cls-9" d="M20.71,25.9a.37.37,0,1,1-.37.37A.37.37,0,0,1,20.71,25.9Z"/><path class="cls-11" d="M17,26.09c1.75-1.69,6.64-2.49,8.49,1.48,0,0-3.15-4.29-7.72-.62Z"/></g></g><path class="cls-14" d="M27.5,35.11l-3.22.18a3.52,3.52,0,0,1,.82.42,7,7,0,0,0,2.39,1.08,7,7,0,0,0,2.39-1.08,3.52,3.52,0,0,1,.82-.42Z"/><path class="cls-15" d="M27.5,35.28l-2.13.06s.3.53,2.13.59,2.13-.59,2.13-.59Z"/><path class="cls-16" d="M29.32,34.93a1.94,1.94,0,0,0-1.82-.14,1.94,1.94,0,0,0-1.82.14,5.24,5.24,0,0,1-1.39.35,9.48,9.48,0,0,0,1.9.21,5.37,5.37,0,0,1,1.31.1,5.37,5.37,0,0,1,1.31-.1,9.48,9.48,0,0,0,1.9-.21A5.24,5.24,0,0,1,29.32,34.93Z"/><path class="cls-16" d="M28.92,36.06a3.73,3.73,0,0,1-2.84,0,5.48,5.48,0,0,0-1.8-.78,4.4,4.4,0,0,1,.94.87A2.28,2.28,0,0,0,27.5,37.4a2.28,2.28,0,0,0,2.28-1.24,4.4,4.4,0,0,1,.94-.87A5.48,5.48,0,0,0,28.92,36.06Z"/><g id="Layer_1_-_copie_4" data-name="Layer 1 - copie 4"><path class="cls-6" d="M38.32,44.2c-1.36-.16-2.44-.33-4-.47a17.56,17.56,0,0,1-6.84,4.93,17.56,17.56,0,0,1-6.84-4.93c-1.55.14-2.63.31-4,.47A4.88,4.88,0,0,0,12.37,49l-.47,6H43.1l-.47-6A4.88,4.88,0,0,0,38.32,44.2Z"/></g><g id="Layer_1" data-name="Layer 1"><polygon class="cls-17" points="32.34 42.69 31.7 40.77 27.93 41.26 27.53 46.12 27.13 41.26 23.36 40.77 22.72 42.69 16.65 43.81 16.65 55.02 27.53 55.02 38.41 55.02 38.41 43.81 32.34 42.69"/></g><g id="_1" data-name="1"><path class="cls-18" d="M33.84,13a1.93,1.93,0,0,0-2,0c-.85.69-1.49,1-1.49,3.21s-.21,6.68,1.17,8.41c0,0-3-.78-2.45-8.07,0,0-1.92,4.08-5.55,5.64a15.91,15.91,0,0,0,2.77-3.9s-5.65,6.07-8.53,7.2a20.3,20.3,0,0,0,2.45-2.78s-2.67,1.73-3.2,2.78a8.11,8.11,0,0,0,.75,6.16c1.17,1.56,2.77,2.86,3.31,4a4.67,4.67,0,0,1-.21,3.64c-.43.69,1.92,4.42,1.28,6.07A22.28,22.28,0,0,0,19.77,41c-1-1-1.81-4.16-1.81-4.16s.64,7.55,5.33,11.71c0,0-3.84-1-7.79-11.1,0,0-3.41,2.08-4.69,2.08a3,3,0,0,0-2,.78,7.45,7.45,0,0,0,1.28-1.91s-3.09,1.65-5.44,1c0,0,3.84-.26,5.12-1.91a14.73,14.73,0,0,1-2.56.26,3.74,3.74,0,0,0,2.56-2.25s-2.67,1.3-4.16.61c0,0,3-.87,3.73-2.52,0,0-4.91,2.34-8.64,1.39,0,0,8.42-2.86,9.92-7.81A26.05,26.05,0,0,1,6,27.91s4.59-2.34,5-5.72.75-9.45,3.52-12.49,7.68-5.9,10.77-6.33,6.29.17,7.36,1.39,5,1.13,6.19,3.9,4.8,5,5.44,10.84S46.54,30,48.88,32a9.48,9.48,0,0,1-3.31-1.91,3.75,3.75,0,0,0,1.49,2.86,6.81,6.81,0,0,1-3-1.56s2.88,7.29,8.1,8.93c0,0-3.31-.09-5.23-1.65a12.84,12.84,0,0,0,4.19,4.08s-5.25-1.3-8.88-10.41c0,0-1.81,3.9,3.84,8.24,0,0-5-1.39-6.19-4.51,0,0-.64,5.46-3.95,8a16.93,16.93,0,0,1-.32-1.91s-1.85,5.29-5.44,6.42c0,0,4.16-4.6,4.27-8s-1.39-4.34,1.17-7c0,0-3.09,1.47-5.33.52,0,0,5.33-.61,6.4-4.94s.21-14-.75-16S33.84,13,33.84,13Z"/></g></g></g></svg>